<svg width="104" height="104" viewBox="0 0 104 104" fill="none" xmlns="http://www.w3.org/2000/svg">
<path d="M14.6855 95.7243C10.5716 96.5957 8.00007 95.2652 8 93.6608L8 62.026C8 61.8601 8.00321 61.6857 8.00879 61.5065C8.00391 61.3845 8.00098 61.2485 8.00098 61.0973L8.00098 29.944C8.01499 28.6519 8.25865 27.7436 11.2588 27.1081L25.3145 24.276C29.4283 23.4047 31.9997 24.7352 32 26.3395L32 57.9743C32 58.1404 31.9978 58.3153 31.9922 58.4948C31.997 58.6166 31.999 58.7522 31.999 58.903L31.999 90.0573C31.9849 91.349 31.7407 92.2568 28.7412 92.8923L14.6855 95.7243Z" fill="#F5F5F5"/>
<path d="M46.6855 87.7238C42.5715 88.5952 40 87.2647 40 85.6603L40 54.0265C40 53.8607 40.0032 53.6861 40.0088 53.507C40.0039 53.3849 40.001 53.2491 40.001 53.0978L40.001 21.9445C40.015 20.6526 40.2589 19.745 43.2588 19.1095L57.3145 16.2765C61.4285 15.4051 64 16.7366 64 18.341L64 49.9748C64 50.141 63.9978 50.3157 63.9922 50.4953C63.997 50.617 63.999 50.7528 63.999 50.9035L63.999 82.0568C63.9849 83.3485 63.7408 84.2563 60.7412 84.8918L46.6855 87.7238Z" fill="#F5F5F5"/>
<path d="M89.3145 8.27571C93.4284 7.40429 95.9999 8.73481 96 10.3392V21.1839L78.0576 44.5013L95.999 66.7796V74.057C95.9849 75.3486 95.7407 76.2565 92.7412 76.8919L78.6855 79.7249C74.572 80.5963 72.0005 79.2647 72 77.6605V46.0257C72 45.8599 72.0032 45.6853 72.0088 45.5062C72.0039 45.3843 72.001 45.2479 72.001 45.097V13.9427C72.0151 12.6511 72.2594 11.7432 75.2588 11.1077L89.3145 8.27571Z" fill="#F5F5F5"/>
</svg>
