<svg xmlns="http://www.w3.org/2000/svg" version="1.1" xmlns:xlink="http://www.w3.org/1999/xlink" width="104" height="104"><svg width="104" height="104" viewBox="0 0 104 104" fill="none" xmlns="http://www.w3.org/2000/svg">
<path d="M14.6855 95.7248C10.5715 96.5962 8 95.2648 8 93.6603L8 62.0256C8 61.8599 8.00322 61.6859 8.00879 61.507C8.00389 61.3849 8.00098 61.2491 8.00098 61.0978L8.00098 29.9435C8.01505 28.6517 8.259 27.7441 11.2588 27.1086L25.3145 24.2756C29.4285 23.4041 32 24.7356 32 26.34L32 57.9748C32 58.1411 31.9978 58.3157 31.9922 58.4953C31.997 58.6169 31.999 58.7521 31.999 58.9025L31.999 90.0568C31.985 91.3487 31.7411 92.2563 28.7412 92.8918L14.6855 95.7248Z" fill="#5463FF"></path>
<path d="M46.6855 87.7243C42.572 88.5956 40.0005 87.265 40 85.6608L40 54.0261C40 53.8601 40.0032 53.6858 40.0088 53.5065C40.0039 53.3845 40.001 53.2484 40.001 53.0973L40.001 21.944C40.0151 20.6524 40.2592 19.7445 43.2588 19.1091L57.3145 16.277C61.4284 15.4056 63.9999 16.7362 64 18.3405L64 49.9753C64 50.1412 63.9978 50.3156 63.9922 50.4948C63.9971 50.6166 63.999 50.7522 63.999 50.903L63.999 82.0563C63.985 83.3483 63.7412 84.2558 60.7412 84.8913L46.6855 87.7243Z" fill="#5463FF"></path>
<path d="M89.3145 8.27435C93.4281 7.40301 95.9996 8.73456 96 10.3388V21.1845L78.0576 44.5009L95.999 66.7792V74.0566C95.9849 75.3482 95.7407 76.2561 92.7412 76.8915L78.6855 79.7236C74.5716 80.595 72.0001 79.2645 72 77.6601V46.0253C72 45.8596 72.0032 45.6848 72.0088 45.5058C72.0039 45.3838 72.001 45.2477 72.001 45.0966V13.9423C72.0151 12.6507 72.2593 11.7428 75.2588 11.1074L89.3145 8.27435Z" fill="#5463FF"></path>
</svg><style>@media (prefers-color-scheme: light) { :root { filter: none; } }
@media (prefers-color-scheme: dark) { :root { filter: none; } }
</style></svg>