<svg width="450" height="104" viewBox="0 0 450 104" fill="none" xmlns="http://www.w3.org/2000/svg">
<g clip-path="url(#clip0_2_171)">
<path d="M14.6855 95.7243C10.5716 96.5957 8.00007 95.2652 8 93.6608L8 62.026C8 61.8601 8.00321 61.6857 8.00879 61.5065C8.00391 61.3845 8.00098 61.2485 8.00098 61.0973L8.00098 29.944C8.01499 28.6519 8.25865 27.7436 11.2588 27.1081L25.3145 24.276C29.4283 23.4047 31.9997 24.7352 32 26.3395L32 57.9743C32 58.1404 31.9978 58.3153 31.9922 58.4948C31.997 58.6166 31.999 58.7522 31.999 58.903L31.999 90.0573C31.9849 91.349 31.7407 92.2568 28.7412 92.8923L14.6855 95.7243Z" fill="#F5F5F5"/>
<path d="M46.6855 87.7238C42.5715 88.5952 40 87.2647 40 85.6603L40 54.0265C40 53.8607 40.0032 53.6861 40.0088 53.507C40.0039 53.3849 40.001 53.2491 40.001 53.0978L40.001 21.9445C40.015 20.6526 40.2589 19.745 43.2588 19.1095L57.3145 16.2765C61.4285 15.4051 64 16.7366 64 18.341L64 49.9748C64 50.141 63.9978 50.3157 63.9922 50.4953C63.997 50.617 63.999 50.7528 63.999 50.9035L63.999 82.0568C63.9849 83.3485 63.7408 84.2563 60.7412 84.8918L46.6855 87.7238Z" fill="#F5F5F5"/>
<path d="M89.3145 8.27571C93.4284 7.40429 95.9999 8.73481 96 10.3392V21.1839L78.0576 44.5013L95.999 66.7796V74.057C95.9849 75.3486 95.7407 76.2565 92.7412 76.8919L78.6855 79.7249C74.572 80.5963 72.0005 79.2647 72 77.6605V46.0257C72 45.8599 72.0032 45.6853 72.0088 45.5062C72.0039 45.3843 72.001 45.2479 72.001 45.097V13.9427C72.0151 12.6511 72.2594 11.7432 75.2588 11.1077L89.3145 8.27571Z" fill="#F5F5F5"/>
<path d="M146.15 80V7.9H160.57V37.667L183.024 7.9H201.873L173.96 41.684L203.933 80H185.496L160.57 48.173V80H146.15ZM226.563 81.339C221.688 81.339 217.225 80.103 213.173 77.631C209.191 75.0903 205.998 71.7257 203.594 67.537C201.26 63.2797 200.092 58.576 200.092 53.426C200.092 49.5807 200.779 45.9757 202.152 42.611C203.526 39.1777 205.414 36.1907 207.817 33.65C210.221 31.0407 213.002 29.015 216.16 27.573C219.388 26.0623 222.855 25.307 226.563 25.307C231.233 25.307 234.872 26.1997 237.481 27.985C240.091 29.7017 242.116 32.002 243.558 34.886V26.44H257.36V80H243.867V71.245C242.425 74.2663 240.365 76.704 237.687 78.558C235.078 80.412 231.37 81.339 226.563 81.339ZM228.829 68.773C231.919 68.773 234.563 68.0863 236.76 66.713C239.026 65.271 240.777 63.3827 242.013 61.048C243.249 58.7133 243.867 56.1727 243.867 53.426C243.867 50.6107 243.249 48.0357 242.013 45.701C240.777 43.3663 239.026 41.478 236.76 40.036C234.563 38.594 231.919 37.873 228.829 37.873C225.877 37.873 223.267 38.594 221.001 40.036C218.804 41.4093 217.087 43.2633 215.851 45.598C214.615 47.9327 213.997 50.5077 213.997 53.323C213.997 56.001 214.615 58.5417 215.851 60.945C217.087 63.2797 218.804 65.168 221.001 66.61C223.267 68.052 225.877 68.773 228.829 68.773ZM265.622 80V26.44H279.321V34.268C282.136 28.2253 287.595 25.204 295.698 25.204C299.543 25.204 303.011 26.0967 306.101 27.882C309.191 29.6673 311.629 32.208 313.414 35.504C315.199 38.8 316.092 42.714 316.092 47.246V80H302.187V50.645C302.187 45.9757 301.123 42.611 298.994 40.551C296.865 38.4223 294.084 37.358 290.651 37.358C287.698 37.358 285.089 38.4223 282.823 40.551C280.626 42.611 279.527 45.9757 279.527 50.645V80H265.622ZM349.508 81.339C344.015 81.339 339.174 80.0687 334.985 77.528C330.797 74.9873 327.535 71.6227 325.2 67.434C322.934 63.1767 321.801 58.473 321.801 53.323C321.801 48.173 323.003 43.4693 325.406 39.212C327.81 34.886 331.071 31.4527 335.191 28.912C339.38 26.3713 344.152 25.101 349.508 25.101C354.864 25.101 359.568 26.3713 363.619 28.912C367.739 31.4527 370.932 34.886 373.198 39.212C375.533 43.4693 376.7 48.173 376.7 53.323C376.7 54.0783 376.666 54.868 376.597 55.692C376.529 56.516 376.426 57.3743 376.288 58.267H336.221C336.977 61.4257 338.487 64.0007 340.753 65.992C343.088 67.9833 346.006 68.979 349.508 68.979C352.53 68.979 355.139 68.2923 357.336 66.919C359.602 65.5457 361.353 63.829 362.589 61.769L373.404 69.906C371.276 73.2707 368.083 76.0173 363.825 78.146C359.568 80.2747 354.796 81.339 349.508 81.339ZM349.302 37.049C346.006 37.049 343.191 38.0447 340.856 40.036C338.522 42.0273 336.977 44.6367 336.221 47.864H362.692C361.937 44.9113 360.358 42.3707 357.954 40.242C355.62 38.1133 352.736 37.049 349.302 37.049ZM408.571 81.339C403.078 81.339 398.168 80.0687 393.842 77.528C389.516 74.9873 386.117 71.6227 383.645 67.434C381.242 63.1767 380.04 58.473 380.04 53.323C380.04 48.173 381.242 43.4693 383.645 39.212C386.117 34.9547 389.516 31.5557 393.842 29.015C398.168 26.4743 403.078 25.204 408.571 25.204C414.133 25.204 419.043 26.4743 423.3 29.015C427.626 31.5557 430.991 34.9547 433.394 39.212C435.866 43.4693 437.102 48.173 437.102 53.323C437.102 58.473 435.866 63.1767 433.394 67.434C430.991 71.6227 427.626 74.9873 423.3 77.528C419.043 80.0687 414.133 81.339 408.571 81.339ZM408.571 68.67C411.524 68.67 414.099 67.9833 416.296 66.61C418.494 65.168 420.176 63.2797 421.343 60.945C422.579 58.6103 423.197 56.0697 423.197 53.323C423.197 50.5077 422.579 47.9327 421.343 45.598C420.176 43.2633 418.494 41.4093 416.296 40.036C414.099 38.594 411.524 37.873 408.571 37.873C405.619 37.873 403.044 38.594 400.846 40.036C398.649 41.4093 396.932 43.2633 395.696 45.598C394.529 47.9327 393.945 50.5077 393.945 53.323C393.945 56.0697 394.529 58.6103 395.696 60.945C396.932 63.2797 398.649 65.168 400.846 66.61C403.044 67.9833 405.619 68.67 408.571 68.67Z" fill="white"/>
</g>
<defs>
<clipPath id="clip0_2_171">
<rect width="450" height="104" fill="white"/>
</clipPath>
</defs>
</svg>
